<svg id="_005-farming" data-name="005-farming" xmlns="http://www.w3.org/2000/svg" width="52.227" height="66.309" viewBox="0 0 52.227 66.309">
  <ellipse id="Ellipse_934" data-name="Ellipse 934" cx="0.971" cy="0.971" rx="0.971" ry="0.971" transform="translate(10.619 59.35)" fill="#0f4229"/>
  <ellipse id="Ellipse_935" data-name="Ellipse 935" cx="0.971" cy="0.971" rx="0.971" ry="0.971" transform="translate(38.824 59.35)" fill="#0f4229"/>
  <path id="Path_17157" data-name="Path 17157" d="M75.961,9.394a10.024,10.024,0,0,0-20.008,0L54.372,34.526a2.7,2.7,0,0,0,2.7,2.873h5.979v5.055a2.122,2.122,0,0,0-2.086,2.119v6.254a.971.971,0,1,0,1.943,0V44.573a.178.178,0,0,1,.178-.178H68.83a.178.178,0,0,1,.178.178V61.315a3.052,3.052,0,1,1-6.1,0v-6.6a.971.971,0,1,0-1.943,0v6.6a4.994,4.994,0,1,0,9.988,0V44.573a2.122,2.122,0,0,0-2.086-2.119V37.4h5.979a2.7,2.7,0,0,0,2.7-2.873ZM66.923,42.452H64.991V32.774a18.584,18.584,0,0,1,.966-5.925,18.59,18.59,0,0,1,.966,5.925ZM75.4,35.216a.753.753,0,0,1-.555.24H68.865V32.774a20.531,20.531,0,0,0-1.3-7.214,1.712,1.712,0,0,0-3.207,0,20.526,20.526,0,0,0-1.3,7.214v2.683H57.07a.761.761,0,0,1-.759-.808L57.892,9.516a8.081,8.081,0,0,1,16.13,0L75.6,34.648A.753.753,0,0,1,75.4,35.216Z" transform="translate(-54.366)" fill="#0f4229"/>
  <path id="Path_17158" data-name="Path 17158" d="M288.749,6.067a1.649,1.649,0,0,0-1.423-.836H287.3a1.648,1.648,0,0,0-1.421.8c-1.818,3-1.818,4.074-1.819,4.429v13.33a1.383,1.383,0,0,1-2.767,0V10.461c0-.008,0-.016,0-.023a10.045,10.045,0,0,0-1.793-4.368,1.649,1.649,0,0,0-1.414-.79h-.013a1.652,1.652,0,0,0-1.417.812c-1.806,3.03-1.806,4-1.806,4.317V23.791a1.384,1.384,0,0,1-2.767,0V10.483c.017-.378.027-1.477-1.819-4.4a1.663,1.663,0,0,0-2.837.037c-1.788,3-1.788,3.972-1.788,4.29v8.159a.971.971,0,0,0,1.943,0V10.408a8.768,8.768,0,0,1,1.281-2.9,7.41,7.41,0,0,1,1.278,2.906c0,.015,0,.03,0,.045v13.33a3.326,3.326,0,0,0,6.652,0V10.408a8.86,8.86,0,0,1,1.3-2.919,8.231,8.231,0,0,1,1.262,2.985V23.791a3.326,3.326,0,0,0,6.652,0V10.462A8.259,8.259,0,0,1,287.3,7.451c1.229,2.21,1.266,2.884,1.266,2.957v17a7.889,7.889,0,0,1-4.716,7.222l-2.6,1.143c-.1.045-.207.088-.313.129a20.519,20.519,0,0,0-1.255-5.788,1.7,1.7,0,0,0-1.6-1.113h0a1.7,1.7,0,0,0-1.6,1.112,20.519,20.519,0,0,0-1.255,5.787c-.105-.041-.21-.083-.312-.128l-2.6-1.143a7.889,7.889,0,0,1-4.716-7.222V22.452a.971.971,0,0,0-1.943,0v4.955a9.832,9.832,0,0,0,5.878,9l2.6,1.143a9.866,9.866,0,0,0,1.044.389v9.068a2.122,2.122,0,0,0-2.086,2.119V65.868a4.994,4.994,0,1,0,9.989,0V49.126a2.122,2.122,0,0,0-2.086-2.119V37.94a9.878,9.878,0,0,0,1.044-.389l2.6-1.143a9.832,9.832,0,0,0,5.878-9v-17c0-.315,0-1.275-1.76-4.342ZM278.076,31.4a18.586,18.586,0,0,1,.966,5.925v9.678H277.11V37.327A18.586,18.586,0,0,1,278.076,31.4Zm3.052,17.724V65.868a3.052,3.052,0,1,1-6.1,0V49.126a.178.178,0,0,1,.178-.178h5.747a.178.178,0,0,1,.178.178Z" transform="translate(-238.282 -4.554)" fill="#0f4229"/>
</svg>
