<svg xmlns="http://www.w3.org/2000/svg" width="66.307" height="49.529" viewBox="0 0 66.307 49.529">
  <path id="Path_17149" data-name="Path 17149" d="M66.167,111.34a7.083,7.083,0,0,0-9.528-4.042,9.1,9.1,0,0,0-10.868-4.118,13.218,13.218,0,0,0-10.639-8.593A32.809,32.809,0,0,1,39,80.6a18.6,18.6,0,0,1,3.383-4.506,6.5,6.5,0,0,0,3.582,2.756,9.36,9.36,0,0,0,2.887.418c4.483,0,9.615-2.476,11.91-3.72a2.173,2.173,0,0,0,.877-2.929,15.87,15.87,0,0,0-13.767-7.839c-3.783.087-6.2,2.205-6.675,5.822a16.406,16.406,0,0,0-7.87,7.144,25.983,25.983,0,0,0-2.383,5.551,15.444,15.444,0,0,0-5.629-4.9c0-.014,0-.027,0-.041A6.832,6.832,0,0,0,24,74.522a6.688,6.688,0,0,0-4.9-2.442,15.478,15.478,0,0,0-8.271,1.565.971.971,0,1,0,.848,1.748,13.73,13.73,0,0,1,7.231-1.38c2.47.245,3.93,1.435,4.351,3.541a14.083,14.083,0,0,0-6.213-.543.972.972,0,0,0-.167,1.885,17.027,17.027,0,0,1,5.457,3.469,4.6,4.6,0,0,1-2.875,2,6.892,6.892,0,0,1-1.6.176c-4.278,0-9.67-3.24-11.376-4.341a.224.224,0,0,1-.066-.311,11.268,11.268,0,0,1,1.978-2.306.971.971,0,1,0-1.3-1.444A13.211,13.211,0,0,0,4.776,78.85a2.174,2.174,0,0,0,.652,2.987c2.333,1.5,7.767,4.647,12.449,4.647a8.745,8.745,0,0,0,2.032-.226,6.508,6.508,0,0,0,3.8-2.481,18.6,18.6,0,0,1,3.031,4.75,32.9,32.9,0,0,1,2.136,6.73,13.264,13.264,0,0,0-8.1,8.4,9.019,9.019,0,0,0-4.091-.973,9.148,9.148,0,0,0-7.746,4.338A7.089,7.089,0,0,0,.128,111.34,2.2,2.2,0,0,0,2.191,114.3H28.743a.971.971,0,1,0,0-1.943H2.192a.244.244,0,0,1-.207-.108.261.261,0,0,1-.031-.245,5.156,5.156,0,0,1,4.828-3.376,5.093,5.093,0,0,1,2.189.489.971.971,0,0,0,1.289-.455,7.187,7.187,0,0,1,6.432-4.035,7.09,7.09,0,0,1,4.137,1.322.971.971,0,0,0,1.514-.593,11.254,11.254,0,0,1,21.883-.623.971.971,0,0,0,1.366.62,7.144,7.144,0,0,1,9.725,3.65.971.971,0,0,0,1.421.44,5.138,5.138,0,0,1,7.6,2.56.262.262,0,0,1-.031.245.244.244,0,0,1-.207.108H32.629a.971.971,0,1,0,0,1.943H64.1a2.2,2.2,0,0,0,2.063-2.963ZM47.913,66.719a13.725,13.725,0,0,1,7.109,1.927,12.926,12.926,0,0,1,4.9,4.885.224.224,0,0,1-.09.305C57.811,74.932,50.882,78.4,46.56,77a4.6,4.6,0,0,1-2.7-2.212,17.025,17.025,0,0,1,5.7-3.044.971.971,0,0,0-.021-1.892,14.084,14.084,0,0,0-6.238.07c.576-2.067,2.121-3.143,4.608-3.2ZM32.351,85.461A25.717,25.717,0,0,1,35,78.728c2-3.4,5.564-6.672,10.186-7.2a20.477,20.477,0,0,0-7.9,8.147,35.375,35.375,0,0,0-3.439,9.5,23.377,23.377,0,0,0-1.23-3.063c-.1-.194-.192-.383-.291-.569.009-.027.018-.053.025-.081ZM28.52,87.74a20.477,20.477,0,0,0-7.256-8.723c4.568.877,7.87,4.407,9.61,7.951a26.279,26.279,0,0,1,2.225,7.5,13.083,13.083,0,0,0-2.344.257A34.807,34.807,0,0,0,28.52,87.74Z" transform="translate(0.006 -64.773)" fill="#348e38"/>
</svg>
