<svg id="_034-fruit_box" data-name="034-fruit box" xmlns="http://www.w3.org/2000/svg" width="66.309" height="60.422" viewBox="0 0 66.309 60.422">
  <ellipse id="Ellipse_962" data-name="Ellipse 962" cx="0.971" cy="0.971" rx="0.971" ry="0.971" transform="translate(5.055 29.987)" fill="#348e38"/>
  <ellipse id="Ellipse_963" data-name="Ellipse 963" cx="0.971" cy="0.971" rx="0.971" ry="0.971" transform="translate(5.055 42.527)" fill="#348e38"/>
  <ellipse id="Ellipse_964" data-name="Ellipse 964" cx="0.971" cy="0.971" rx="0.971" ry="0.971" transform="translate(5.055 55.067)" fill="#348e38"/>
  <ellipse id="Ellipse_965" data-name="Ellipse 965" cx="0.971" cy="0.971" rx="0.971" ry="0.971" transform="translate(59.6 29.987)" fill="#348e38"/>
  <ellipse id="Ellipse_966" data-name="Ellipse 966" cx="0.971" cy="0.971" rx="0.971" ry="0.971" transform="translate(59.6 42.527)" fill="#348e38"/>
  <ellipse id="Ellipse_967" data-name="Ellipse 967" cx="0.971" cy="0.971" rx="0.971" ry="0.971" transform="translate(59.6 55.067)" fill="#348e38"/>
  <path id="Path_17219" data-name="Path 17219" d="M66.309,55.724v-4.08A2.346,2.346,0,0,0,63.965,49.3h-.8c.024-.1.049-.2.07-.294a10.76,10.76,0,0,0-.159-5.134,10.968,10.968,0,0,1-.108-5.531c.063-.259.113-.524.151-.789a8.274,8.274,0,0,0-5.894-9.09c-.219-.062-.439-.115-.659-.159a8.512,8.512,0,0,0-1.306-4.265.971.971,0,1,0-1.642,1.038,6.561,6.561,0,0,1,1,3.074A8.265,8.265,0,0,0,49.7,30.018a.971.971,0,0,0,1.233,1.5A6.319,6.319,0,0,1,54.494,30.1l-.141,1.2a.971.971,0,0,0,1.93.226l.149-1.269c.087.021.173.041.259.066a6.324,6.324,0,0,1,4.5,6.948c-.029.2-.068.407-.116.606a12.913,12.913,0,0,0,.126,6.513,8.689,8.689,0,0,1,.13,4.2c-.05.235-.112.469-.181.7h-11.5a10.86,10.86,0,0,0,.189-2.018,10.743,10.743,0,0,0-2.964-7.415,12.552,12.552,0,0,0,1.846-4.588q.018-.1.039-.2a6.389,6.389,0,0,1,.32-1.048.971.971,0,0,0-1.8-.725,8.339,8.339,0,0,0-.417,1.368c-.019.088-.036.175-.051.261A10.53,10.53,0,0,1,45.4,38.568a10.813,10.813,0,0,0-1.483-.909,16.777,16.777,0,0,0-2.941-7.322,14.688,14.688,0,0,0-6.545-5.1,14.963,14.963,0,0,0-10.774.026,17.474,17.474,0,0,0-6.182,4.064,3.45,3.45,0,0,0-.353-1.263,2.463,2.463,0,0,0-2.652-1.468c-.091,0-.214.009-.3.006-.051-.156-.105-.432-.144-.628-.209-1.053-.645-3.244-3.164-3.244S7.908,24.917,7.7,25.97c-.039.2-.094.472-.144.628-.086,0-.21,0-.3-.006A2.465,2.465,0,0,0,4.6,28.06a3.506,3.506,0,0,0,.285,3.529,3.873,3.873,0,0,1,.295.616c-.057.027-.12.055-.174.079a2.984,2.984,0,0,0-2.015,3.1c0,1.009.58,2.359,1.82,4.228a7.045,7.045,0,0,0-.689,4.862L5.176,49.3H2.344A2.346,2.346,0,0,0,0,51.644v4.08a2.346,2.346,0,0,0,2.142,2.333v3.793A2.345,2.345,0,0,0,0,64.184v4.08A2.346,2.346,0,0,0,2.142,70.6v3.793A2.346,2.346,0,0,0,0,76.724V80.8a2.346,2.346,0,0,0,2.344,2.344H43.261a.971.971,0,0,0,0-1.943H2.344a.4.4,0,0,1-.4-.4v-4.08a.4.4,0,0,1,.4-.4H63.965a.4.4,0,0,1,.4.4V80.8a.4.4,0,0,1-.4.4H47.146a.971.971,0,0,0,0,1.943H63.965A2.346,2.346,0,0,0,66.309,80.8v-4.08a2.346,2.346,0,0,0-2.142-2.333V70.6a2.346,2.346,0,0,0,2.142-2.333v-4.08a2.345,2.345,0,0,0-2.142-2.333V58.058A2.346,2.346,0,0,0,66.309,55.724ZM47.67,49.3H30.449a8.883,8.883,0,0,1-.232-2.018,8.775,8.775,0,0,1,1.473-4.888,9.408,9.408,0,0,0,3.8.739,13.544,13.544,0,0,0,3.095-.378,1.691,1.691,0,0,0,1.278-1.979,14.058,14.058,0,0,0-.662-2.333A8.845,8.845,0,0,1,47.67,49.3Zm-9.764-8.384c-1.315.281-4.085.647-6.08-.642S29.025,36.311,28.74,35c1.315-.281,4.085-.647,6.08.642s2.8,3.964,3.086,5.278Zm1.5-9.441a14.645,14.645,0,0,1,2.388,5.374A10.765,10.765,0,0,0,39.06,36.5c-.268,0-.538.013-.805.033a9.486,9.486,0,0,0-.662-.935,17.946,17.946,0,0,0-.2-6.323,13.072,13.072,0,0,1,2.012,2.2Zm-5.679-4.432c1.525.6,2.291,3.243,2.067,6.912-.981-.609-3.548-1.778-7.73-.8a1.691,1.691,0,0,0-1.278,1.979,10.7,10.7,0,0,0,3.262,6.22,10.705,10.705,0,0,0-1.773,5.926,10.842,10.842,0,0,0,.19,2.018H20.292a32.874,32.874,0,0,1,2.313-9.886c3.346-8.546,8.546-13.379,11.12-12.371Zm-9.377.033a13.408,13.408,0,0,1,5.166-.894,14.239,14.239,0,0,0-2.39,2.04A32.7,32.7,0,0,0,20.8,38.706,34.736,34.736,0,0,0,18.348,49.3H16.7l.943-5.13a7.022,7.022,0,0,0-.711-4.591c1.224-1.853,1.8-3.19,1.8-4.193a2.932,2.932,0,0,0-1.467-2.832,15.87,15.87,0,0,1,7.083-5.478ZM5.8,34.06a1.853,1.853,0,0,0,1.355-1.7,3.514,3.514,0,0,0-.559-1.7c-.39-.718-.564-1.092-.243-1.755.193-.4.278-.4.823-.374a2.166,2.166,0,0,0,1.76-.522,3.078,3.078,0,0,0,.67-1.663c.263-1.322.449-1.68,1.259-1.68s1,.358,1.259,1.68a3.077,3.077,0,0,0,.67,1.663,2.167,2.167,0,0,0,1.76.522c.546-.023.63-.026.823.374.321.662.147,1.037-.243,1.755a3.513,3.513,0,0,0-.559,1.7,1.554,1.554,0,0,0,.624,1.285.986.986,0,0,0,.115.088l.035.02a3.924,3.924,0,0,0,.58.3c.574.255.862.384.862,1.326a5.765,5.765,0,0,1-1.11,2.552,7.029,7.029,0,0,0-4.845-1.947q-.161,0-.32.007a6.774,6.774,0,0,0-4.457,1.959,5.808,5.808,0,0,1-1.122-2.571c0-.942.288-1.071.862-1.326Zm.471,11.133H8.457a.971.971,0,1,0,0-1.943H5.913a5.111,5.111,0,0,1,1.055-3.4A4.861,4.861,0,0,1,10.6,37.939q.116-.005.232-.005a5.081,5.081,0,0,1,3.735,1.643,4.963,4.963,0,0,1,1.165,4.242L14.728,49.3H7.164ZM1.943,55.724v-4.08a.4.4,0,0,1,.4-.4H63.965a.4.4,0,0,1,.4.4v4.08a.4.4,0,0,1-.4.4H2.344a.4.4,0,0,1-.4-.4ZM62.224,70.608v3.773H4.085V70.608Zm2.142-6.424v4.08a.4.4,0,0,1-.4.4H2.344a.4.4,0,0,1-.4-.4v-4.08a.4.4,0,0,1,.4-.4H14.1a.971.971,0,0,0,0-1.943H4.085V58.068H62.224v3.773H17.988a.971.971,0,1,0,0,1.943H63.965A.4.4,0,0,1,64.366,64.184Z" transform="translate(0 -22.726)" fill="#348e38"/>
</svg>
