<svg id="_015-hand_gloves" data-name="015-hand gloves" xmlns="http://www.w3.org/2000/svg" width="63.831" height="66.309" viewBox="0 0 63.831 66.309">
  <path id="Path_17177" data-name="Path 17177" d="M303.484,39.671a.971.971,0,0,0,.971-.971V14.782a3.28,3.28,0,0,0-3.146-3.317,3.245,3.245,0,0,0-1.439.275v-4.4a3.905,3.905,0,0,0-3.7-3.9,3.811,3.811,0,0,0-2.034.5v-.1a3.837,3.837,0,0,0-7.674,0v.1a3.836,3.836,0,0,0-5.732,3.336V20a3.735,3.735,0,0,0-1.787-.514A3.837,3.837,0,0,0,275,23.325v8.51a17.245,17.245,0,0,0,2.624,9.15l2.219,3.551a5.836,5.836,0,0,1,.888,3.1v16.6a2.082,2.082,0,0,0,2.079,2.079h19.565a2.082,2.082,0,0,0,2.079-2.079V42.585a.971.971,0,0,0-1.943,0V57.621H282.674V47.633a7.777,7.777,0,0,0-1.183-4.126l-2.219-3.551a15.3,15.3,0,0,1-2.329-8.12v-8.51a1.895,1.895,0,0,1,1.948-1.894,1.936,1.936,0,0,1,1.839,1.917v8.57a.971.971,0,1,0,1.943,0v-8.5c0-.012,0-16.144,0-16.144a1.895,1.895,0,0,1,3.789,0V22.752a.971.971,0,1,0,1.943,0V3.837a1.895,1.895,0,0,1,3.789,0V22.752a.971.971,0,1,0,1.943,0V7.274A1.895,1.895,0,0,1,296.1,5.383a1.946,1.946,0,0,1,1.825,1.962V23.9a.971.971,0,1,0,1.943,0V14.727a1.321,1.321,0,0,1,1.37-1.32,1.361,1.361,0,0,1,1.272,1.376V38.7a.971.971,0,0,0,.971.971Zm-.971,19.893V64.23a.137.137,0,0,1-.136.137H282.811a.137.137,0,0,1-.137-.137V59.564Z" transform="translate(-240.624 0)" fill="#348e38"/>
  <path id="Path_17178" data-name="Path 17178" d="M35.076,19.489A3.735,3.735,0,0,0,33.288,20V7.276A3.836,3.836,0,0,0,27.557,3.94v-.1a3.837,3.837,0,1,0-7.674,0v.1a3.808,3.808,0,0,0-2.034-.5,3.905,3.905,0,0,0-3.7,3.9v4.4a3.247,3.247,0,0,0-1.439-.275,3.28,3.28,0,0,0-3.146,3.317V45.85a.971.971,0,0,0,1.943,0V14.782a1.361,1.361,0,0,1,1.272-1.376,1.321,1.321,0,0,1,1.37,1.32V23.9a.971.971,0,0,0,1.943,0V7.345a1.946,1.946,0,0,1,1.825-1.962,1.895,1.895,0,0,1,1.965,1.893V22.752a.971.971,0,1,0,1.943,0V3.837a1.895,1.895,0,0,1,3.789,0V22.752a.971.971,0,1,0,1.943,0V7.276a1.895,1.895,0,0,1,3.789,0V23.385c0,.012,0,.023,0,.035v8.5a.971.971,0,0,0,1.943,0v-8.57a1.936,1.936,0,0,1,1.839-1.917,1.895,1.895,0,0,1,1.949,1.894v8.51a15.306,15.306,0,0,1-2.329,8.12l-2.219,3.551a7.777,7.777,0,0,0-1.183,4.126v9.988H11.508V49.735a.971.971,0,1,0-1.943,0V64.229a2.082,2.082,0,0,0,2.079,2.079H31.209a2.082,2.082,0,0,0,2.079-2.079v-16.6a5.837,5.837,0,0,1,.888-3.1L36.4,40.985a17.244,17.244,0,0,0,2.624-9.15v-8.51a3.837,3.837,0,0,0-3.944-3.836Zm-3.73,44.74a.137.137,0,0,1-.136.137H11.644a.137.137,0,0,1-.137-.137V59.564H31.346Z" transform="translate(-9.565 0)" fill="#348e38"/>
</svg>
