<svg xmlns="http://www.w3.org/2000/svg" xmlns:xlink="http://www.w3.org/1999/xlink" width="180" height="180" viewBox="0 0 180 180">
  <defs>
    <filter id="Ellipse_136" x="0" y="0" width="180" height="180" filterUnits="userSpaceOnUse">
      <feOffset dy="3" input="SourceAlpha"/>
      <feGaussianBlur stdDeviation="18" result="blur"/>
      <feFlood flood-opacity="0.059"/>
      <feComposite operator="in" in2="blur"/>
      <feComposite in="SourceGraphic"/>
    </filter>
  </defs>
  <g id="Group_7526" data-name="Group 7526" transform="translate(-470 -4898)">
    <g transform="matrix(1, 0, 0, 1, 470, 4898)" filter="url(#Ellipse_136)">
      <circle id="Ellipse_136-2" data-name="Ellipse 136" cx="36" cy="36" r="36" transform="translate(54 51)" fill="#fff"/>
    </g>
    <path id="Icon_awesome-quote-left" data-name="Icon awesome-quote-left" d="M32.625,18H27V13.5A4.5,4.5,0,0,1,31.5,9h.563A1.683,1.683,0,0,0,33.75,7.313V3.938A1.683,1.683,0,0,0,32.063,2.25H31.5A11.247,11.247,0,0,0,20.25,13.5V30.375a3.376,3.376,0,0,0,3.375,3.375h9A3.376,3.376,0,0,0,36,30.375v-9A3.376,3.376,0,0,0,32.625,18Zm-20.25,0H6.75V13.5A4.5,4.5,0,0,1,11.25,9h.563A1.683,1.683,0,0,0,13.5,7.313V3.938A1.683,1.683,0,0,0,11.813,2.25H11.25A11.247,11.247,0,0,0,0,13.5V30.375A3.376,3.376,0,0,0,3.375,33.75h9a3.376,3.376,0,0,0,3.375-3.375v-9A3.376,3.376,0,0,0,12.375,18Z" transform="translate(542 4966.75)" fill="#348e38"/>
  </g>
</svg>
