<svg xmlns="http://www.w3.org/2000/svg" width="39.488" height="57.966" viewBox="0 0 39.488 57.966">
  <g id="Group_7050" data-name="Group 7050" transform="translate(21545.331 22756.25)">
    <path id="Path_17302" data-name="Path 17302" d="M108.019,87.073l-.441-.111a16.2,16.2,0,0,1-9.642-7.894c-2.466-4.38-3.312-9.68-3.4-14.645-.019-1.748,1.234-2.653,2.723-3.2,2.7-1.01,7.4-1.418,9.071-3.2V49.479a1.694,1.694,0,1,1,3.387,0V62.084c0,3-.59,13.174-3.387,14.592V62.084a24.457,24.457,0,0,1-5.336,1.639c-3.329.754-3.054,1.4-2.943,3.4a23.867,23.867,0,0,0,2.832,10.287,12.96,12.96,0,0,0,7.14,6.145,12.888,12.888,0,0,0,7.14-6.145,23.867,23.867,0,0,0,2.832-10.287c.111-2.005.386-2.649-2.942-3.4-1.031-.221-2.1-.461-3.147-.793V59.3c2.134.809,5.006,1.215,6.882,1.913,1.491.552,2.741,1.457,2.725,3.2-.1,4.965-.941,10.266-3.407,14.645a16.2,16.2,0,0,1-9.642,7.894Z" transform="translate(-21633.604 -22785.357)" fill="#0f4229" fill-rule="evenodd"/>
    <path id="Path_17303" data-name="Path 17303" d="M121.779,50.875a9.5,9.5,0,0,1-16.523.848l.642-.041,10.766-.862-10.746-1.069-.645-.055a9.5,9.5,0,0,1,16.505,1.178Z" transform="translate(-21627.621 -22786.662)" fill="#348e38" fill-rule="evenodd"/>
    <path id="Path_17304" data-name="Path 17304" d="M90.515,49.894a9.522,9.522,0,0,1,16.543-.865l-.662.056-10.766.863L106.375,51l.647.075a9.505,9.505,0,0,1-16.507-1.181Z" transform="translate(-21635.846 -22787.117)" fill="#348e38" fill-rule="evenodd"/>
    <path id="Path_17305" data-name="Path 17305" d="M105.592,35.8a9.508,9.508,0,0,1,.866,16.526l-.055-.645-.866-10.767-1.067,10.75-.055.642A9.5,9.5,0,0,1,105.592,35.8Z" transform="translate(-21630.461 -22792.047)" fill="#348e38" fill-rule="evenodd"/>
    <path id="Path_17306" data-name="Path 17306" d="M116.18,39.976a6.094,6.094,0,0,1-7.547,7.452l.276-.294,4.8-5.006L108.1,46.2l-.333.256a6.085,6.085,0,0,1,8.412-6.475Z" transform="translate(-21626.252 -22789.986)" fill="#348e38" fill-rule="evenodd"/>
    <path id="Path_17307" data-name="Path 17307" d="M94.109,39.42a6.094,6.094,0,0,0,1.9,6.184,6.022,6.022,0,0,0,5.665,1.27l-.276-.293-4.8-5.009,5.612,4.068.332.257a6.1,6.1,0,0,0-8.429-6.477Z" transform="translate(-21633.957 -22790.299)" fill="#348e38" fill-rule="evenodd"/>
  </g>
</svg>
