<svg xmlns="http://www.w3.org/2000/svg" width="70.095" height="69.39" viewBox="0 0 70.095 69.39">
  <path id="Path_17474" data-name="Path 17474" d="M-19.171-66.58c2.781,4.608,2.383,10.964,4.489,16.645,2.105,5.72,6.753,10.805,5.84,14.221C-9.8-32.3-16.232-30.55-21.316-27.809c-5.045,2.7-8.739,6.4-12.712,6.833-4.012.477-8.342-2.344-12.593-5.323s-8.422-6.157-9.176-10.09,1.907-8.581,4.489-12.275,5.045-6.435,7.945-11c2.94-4.568,6.277-10.964,10.924-12.712C-27.831-74.128-21.912-71.228-19.171-66.58Z" transform="translate(18.936 89.338) rotate(51)" fill="#65e182"/>
</svg>
