<svg xmlns="http://www.w3.org/2000/svg" width="70.142" height="70.143" viewBox="0 0 70.142 70.143">
  <g id="Group_661" data-name="Group 661" transform="translate(-170 -320)">
    <path id="Path_339" data-name="Path 339" d="M236.635,320H173.507A3.518,3.518,0,0,0,170,323.507v49.1a3.518,3.518,0,0,0,3.507,3.507h23.229l-.877,7.014H194.55a1.184,1.184,0,0,0-.935.467l-3.507,4.676a1.169,1.169,0,0,0,.935,1.871H219.1a1.169,1.169,0,0,0,.935-1.871l-3.507-4.676a1.185,1.185,0,0,0-.935-.467h-1.309l-.877-7.014h23.229a3.518,3.518,0,0,0,3.507-3.507v-49.1A3.518,3.518,0,0,0,236.635,320Zm-21.627,65.466,1.754,2.338H193.381l1.754-2.338Zm-16.8-2.338.877-7.014h11.971l.877,7.014Zm39.6-10.521a1.169,1.169,0,0,1-1.169,1.169H173.507a1.169,1.169,0,0,1-1.169-1.169V369.1H237.8Zm0-5.845H172.338V323.507a1.169,1.169,0,0,1,1.169-1.169h63.128a1.169,1.169,0,0,1,1.169,1.169Zm0,0" transform="translate(0 0)" fill="#348e38"/>
    <path id="Path_340" data-name="Path 340" d="M249.782,374.738a1.18,1.18,0,0,0-.888-.409h-2.338v-24.55a1.169,1.169,0,0,0-1.169-1.169H219.668a6.964,6.964,0,0,0-4.115,1.344,9.356,9.356,0,1,0-17.407,6.863,4.676,4.676,0,0,0,.479,9.329h3.507v8.183h-2.338a1.169,1.169,0,0,0-1.158,1.356l1.169,7.014a1.17,1.17,0,0,0,1.158.982h46.761a1.17,1.17,0,0,0,1.158-.982l1.169-7.014a1.169,1.169,0,0,0-.269-.947Zm-5.564-23.79v23.381H227.851a1.169,1.169,0,0,0-1.169,1.169v1.169h-4.676V375.5a1.169,1.169,0,0,0-1.169-1.169H204.471v-8.183h2.338v2.338a3.518,3.518,0,0,0,3.507,3.507h22.212v-2.338H210.316a1.169,1.169,0,0,1-1.169-1.169v-2.338h17.536a4.676,4.676,0,1,0,0-9.352h-.093a7.724,7.724,0,0,0,.093-1.169,6.992,6.992,0,0,0-1.8-4.676Zm-45.592,12.859a2.338,2.338,0,0,1,0-4.676H200.1a1.193,1.193,0,0,0,1.04-.631,1.169,1.169,0,0,0-.081-1.2,6.941,6.941,0,0,1-1.263-4.009,7.014,7.014,0,0,1,13.97-.9,1.161,1.161,0,0,0,.877.983,1.185,1.185,0,0,0,1.239-.457,4.671,4.671,0,0,1,8.078,4.583,1.156,1.156,0,0,0,1.064,1.636h1.66a2.338,2.338,0,1,1,0,4.676Zm48.106,17.536H201.957l-.784-4.676h18.495v1.169a1.169,1.169,0,0,0,1.169,1.169h7.014a1.169,1.169,0,0,0,1.169-1.169v-1.169h18.495Zm0,0" transform="translate(-19.273 -19.258)" fill="#348e38"/>
    <rect id="Rectangle_148" data-name="Rectangle 148" width="2.63" height="1.315" transform="translate(215.059 351.565)" fill="#348e38"/>
    <path id="Path_341" data-name="Path 341" d="M394.183,395.507v8.183h2.338v-8.183A3.507,3.507,0,0,0,393.014,392H386v2.338h7.014a1.169,1.169,0,0,1,1.169,1.169Zm0,0" transform="translate(-173.915 -57.972)" fill="#348e38"/>
    <rect id="Rectangle_149" data-name="Rectangle 149" width="2.63" height="3.946" transform="translate(220.32 347.619)" fill="#348e38"/>
  </g>
</svg>
