<svg id="Group_660" data-name="Group 660" xmlns="http://www.w3.org/2000/svg" width="70.633" height="70.633" viewBox="0 0 70.633 70.633">
  <path id="Path_333" data-name="Path 333" d="M106.423,298.623a5.757,5.757,0,0,0-2.783.71A32.572,32.572,0,0,1,135.8,247.4a1.38,1.38,0,0,0,.546-2.7,35.583,35.583,0,0,0-7.03-.7A35.316,35.316,0,0,0,101.6,301.2a5.8,5.8,0,1,0,4.823-2.58Zm2.146,7.94a3.034,3.034,0,1,1,.889-2.146,3.014,3.014,0,0,1-.889,2.146Zm0,0" transform="translate(-94 -244)" fill="#348e38"/>
  <path id="Path_334" data-name="Path 334" d="M327.272,285.057a5.783,5.783,0,1,0-2.039,1.871,32.572,32.572,0,0,1-32.1,51.941,1.38,1.38,0,0,0-.542,2.706,35.6,35.6,0,0,0,6.964.687,35.316,35.316,0,0,0,27.715-57.2Zm-6.968-1.066a3.036,3.036,0,1,1,2.146.889,3.015,3.015,0,0,1-2.146-.889Zm0,0" transform="translate(-264.24 -271.629)" fill="#348e38"/>
  <path id="Path_335" data-name="Path 335" d="M187.4,366.836a1.38,1.38,0,0,0,1.38,1.38h8.626a1.38,1.38,0,0,0,1.38-1.38v-2.674a21.612,21.612,0,0,0,5.178-2.146l1.888,1.888a1.379,1.379,0,0,0,1.951,0l6.1-6.1a1.38,1.38,0,0,0,0-1.951l-1.886-1.886a21.6,21.6,0,0,0,2.146-5.177h2.664a1.38,1.38,0,0,0,1.38-1.38v-8.626a1.379,1.379,0,0,0-1.38-1.38H214.16a21.605,21.605,0,0,0-2.145-5.177l1.876-1.876a1.38,1.38,0,0,0,0-1.952l-6.1-6.1a1.379,1.379,0,0,0-1.951,0l-1.873,1.874a21.6,21.6,0,0,0-5.178-2.146v-2.65a1.379,1.379,0,0,0-1.38-1.379h-8.626a1.38,1.38,0,0,0-1.38,1.379v2.65a21.582,21.582,0,0,0-5.177,2.145L180.35,322.3a1.38,1.38,0,0,0-1.951,0l-6.1,6.1a1.379,1.379,0,0,0,0,1.951l1.876,1.876a21.6,21.6,0,0,0-2.146,5.177h-2.659a1.379,1.379,0,0,0-1.38,1.379l0,8.626a1.379,1.379,0,0,0,1.38,1.38h2.664a21.6,21.6,0,0,0,2.146,5.177l-1.886,1.886a1.38,1.38,0,0,0,0,1.951l6.1,6.1a1.38,1.38,0,0,0,.975.4h0a1.379,1.379,0,0,0,.975-.4l1.888-1.888a21.631,21.631,0,0,0,5.178,2.146Zm-4.637-7.722a1.38,1.38,0,0,0-1.724.183l-1.68,1.68-4.147-4.15,1.678-1.679a1.379,1.379,0,0,0,.183-1.724,18.881,18.881,0,0,1-2.613-6.307,1.38,1.38,0,0,0-1.349-1.089h-2.37l0-5.867h2.366a1.379,1.379,0,0,0,1.349-1.09,18.882,18.882,0,0,1,2.613-6.306,1.379,1.379,0,0,0-.183-1.724l-1.667-1.668,4.15-4.147,1.666,1.666a1.38,1.38,0,0,0,1.724.183,18.874,18.874,0,0,1,6.306-2.613,1.381,1.381,0,0,0,1.09-1.349v-2.356h5.867v2.355a1.379,1.379,0,0,0,1.09,1.349,18.891,18.891,0,0,1,6.306,2.613,1.378,1.378,0,0,0,1.724-.183l1.666-1.666,4.15,4.147-1.667,1.667a1.379,1.379,0,0,0-.183,1.724,18.894,18.894,0,0,1,2.613,6.306,1.379,1.379,0,0,0,1.349,1.09h2.371v5.867h-2.371a1.38,1.38,0,0,0-1.349,1.089,18.878,18.878,0,0,1-2.613,6.306,1.38,1.38,0,0,0,.183,1.724l1.678,1.678-4.147,4.15-1.68-1.679a1.379,1.379,0,0,0-1.724-.183,18.891,18.891,0,0,1-6.306,2.613,1.38,1.38,0,0,0-1.09,1.349v2.38H190.16v-2.38a1.381,1.381,0,0,0-1.09-1.349,18.883,18.883,0,0,1-6.306-2.613Zm0,0" transform="translate(-157.778 -307.791)" fill="#348e38"/>
  <path id="Path_336" data-name="Path 336" d="M290.169,428.77a11.4,11.4,0,1,0-11.4,11.4,11.412,11.412,0,0,0,11.4-11.4Zm-20.039,0a8.64,8.64,0,1,1,8.64,8.64,8.65,8.65,0,0,1-8.64-8.64Zm0,0" transform="translate(-243.454 -393.454)" fill="#348e38"/>
  <path id="Path_337" data-name="Path 337" d="M433.458,264.57a1.381,1.381,0,1,0-.975-.4,1.389,1.389,0,0,0,.975.4Zm0,0" transform="translate(-385.439 -259.352)" fill="#348e38"/>
  <path id="Path_338" data-name="Path 338" d="M249.739,718.359a1.38,1.38,0,1,0,.975.4,1.391,1.391,0,0,0-.975-.4Zm0,0" transform="translate(-227.064 -652.919)" fill="#348e38"/>
</svg>
